<svg height="8.900914mm" viewBox="0 0 122.06094 8.9009142" width="122.06094mm" xmlns="http://www.w3.org/2000/svg"><path d="m103.18395.00167281c-.4855-.01011-.95758.02363-1.35599.10542-.97747.200625-1.67668.41995-2.52698.93327699-.23273.140475-.62519.39169-.82321.565857-.13525.118955-.25336.198418-.38085.327111-.4741.478543-.89959.893174-1.26659 1.512053-.0822.138606-.47026.766818-.47026.919323 0 .284304.53871 1.085942.73433 1.363225.0956.135396.20526.263467.31109.396358.57594.723123 1.50275 1.441548 2.31872 1.8495.16623.08311.29348.144954.4625.219108.58949.258444.96172.343329 1.61954.47749 1.27477.259927 2.93891.06409 4.11345-.460954.17974-.08033.31708-.145086.48059-.22686.51164-.255799 1.25009-.734789 1.64538-1.13378.4018-.405588.58801-.556784.9803-1.09089.22391-.30487.75654-1.114079.75654-1.393197 0-.207468-.56978-1.077293-.73432-1.310514-.0955-.135396-.20526-.263984-.31109-.396875-.11511-.144533-.19431-.225757-.32505-.356567l-.35347-.354501c-.52422-.52772-1.41898-1.05750299-2.10323-1.35753899-.16616-.07285-.32679-.127084-.50953-.197921-.6058-.234796-1.45272-.372275-2.26187-.389124zm-14.57534.116789c-.4855-.01011-.95758.02312-1.35599.104903-.97744.20066-1.67665.41995-2.526978.93327699-.232692.14051-.625192.391726-.823206.565856-.135255.118992-.253361.198383-.380855.327112-.474098.478507-.899595.893692-1.266589 1.512569-.08216.138606-.470256.766267-.470256.918807 0 .284269.538672 1.085942.734322 1.363225.09553.135396.205259.263984.311092.396875.575945.723123 1.502748 1.440996 2.318722 1.848982.166265.08312.293457.14499.462508.219109.5895.258444.96171.343328 1.61954.47749 1.27475.259961 2.93886.06408 4.11344-.460954.1797-.08033.31756-.145086.48111-.22686.51159-.255798 1.24958-.73479 1.64486-1.13378.40182-.405554.58797-.556233.9803-1.090373.2239-.304835.75654-1.114596.75654-1.393714 0-.207467-.56978-1.077328-.73432-1.310514-.0955-.135396-.20525-.263984-.31109-.396875-.11511-.144498-.19434-.225757-.32505-.356567l-.35346-.354501c-.52426-.527719-1.4185-1.056985-2.10272-1.35702299-.16619-.07281-.3273-.127118-.51004-.19792-.60583-.234818-1.45272-.372274-2.26188-.389124zm-64.002813.453719v7.77006799h2.642733v-3.42408l-.03256-.829923.536918.553454 3.662825 3.700549h2.919202v-7.77006799h-2.6479v3.42924799l.03256.819072-.531751-.542603-3.592028-3.70571699zm12.896887 0v7.77006799h4.292245c.535367 0 1.052649-.02377 1.551843-.0708.499194-.05064.967383-.133842 1.405082-.249597.437699-.115756.835609-.271302 1.193726-.466639.361735-.195336.671277-.43925.928109-.732255.256831-.296622.455786-.645955.596862-1.047481.144694-.405143.217041-.875399.217041-1.410767 0-.437698-.06718-.835608-.201021-1.193725-.133842-.361735-.325562-.681613-.575159-.960148-.245979-.282153-.542602-.526583-.889868-.732772-.347265-.206189-.734322-.376205-1.161169-.51004599-.426847-.133842-.887802-.233061-1.383378-.298173-.491959-.06511-1.007691-.09767-1.546676-.09767zm30.863233 0v7.77006799h2.571936v-3.754809l-.06511-1.19941.47749 1.210262 1.660364 3.743957h2.441711l1.682068-3.776513.471806-1.177706-.07596 1.210262v3.743957h2.832386v-7.77006799h-3.82509l-1.6769 3.76566199-.499194 1.708939-.49351-1.708939-1.682068-3.76566199zm43.966313 0v7.77006799h2.64221v-3.42408l-.0325-.829923.53743.553454 3.66231 3.700549h2.9192v-7.77006799h-2.6479v3.42924799l.0326.819072-.53175-.542603-3.59203-3.70571699zm-108.0621417.0015c-1.331184 0-2.316655.20619-2.956926.61856699-.64027.412378-.960665 1.014409-.960665 1.806608 0 .311092.04909.600481.146761.868164.101286.267684.254765.510047.460954.727088.209806.213423.473873.399976.7922.559139.318326.159163.696599.285771 1.134298.379822l1.877404.368969c.260449.03979.468189.08682.623735.141077.159163.05426.238745.133842.238745.238745 0 .05426-.01602.106454-.04858.157096-.03256.04703-.0925.09043-.179317.130225-.08682.03617-.206189.06511-.358118.08682-.151928.0217-.348816.03256-.591178.03256-.271301 0-.530201-.02532-.77618-.07597-.242362-.05064-.470256-.117305-.683679-.200504-.213424-.08682-.412379-.186552-.596863-.29869-.184485-.115755-.352434-.236678-.504362-.363285-.01085 0-.02739.0036-.04909.01085l-1.839164 1.128613c.191719.296622.450102.565857.775663.808219.325561.238745.690915.443384 1.096057.6134.408761.166398.841293.294555 1.297079.384989.459403.09405.91519.141077 1.367358.141077.669209 0 1.253154-.07028 1.752348-.211357.499194-.137459.91364-.327629 1.242818-.569991.332796-.242362.580327-.526066.743107-.851628.166398-.325561.249598-.676444.249598-1.052649 0-.34003-.06305-.640271-.189653-.90072-.126607-.260449-.303858-.484725-.53175-.672827-.227893-.191719-.501262-.349333-.819589-.472322-.318326-.126608-.66921-.224276-1.052649-.293006l-2.121317-.466638c-.249597-.05064-.436149-.09767-.559139-.141077-.119373-.04341-.178801-.113688-.178801-.211356 0-.04703.01447-.09043.04341-.130225.03256-.03979.09198-.07441.1788-.103353.09043-.03256.213424-.05581.36897-.07028.159163-.01809.365352-.02739.618567-.02739.130224 0 .28577.01292.466638.03824.180867.0217.363802.05943.548287.113689.184484.05064.356051.119372.515214.206188.16278.08682.285771.193787.36897.320394h.02739c.01085-.0036.01964-.0057.02687-.0057l2.094446-.981852c-.242363-.339963-.518832-.624184-.829924-.852077-.307474-.227892-.638721-.410311-.993221-.54776999-.350883-.137459-.716236-.235128-1.096057-.293005-.379821-.05788-.759644-.08682-1.139465-.08682zm11.6830067 0c-.853693 0-1.622123.09922-2.305802.298173-.680061.19533699-1.258838.47387399-1.736328.83560799-.47749.358118-.84491.79065-1.101742 1.297079-.253214.506428-.379821 1.070736-.379821 1.69292 0 .625801.126607 1.193726.379821 1.703772.256832.510046.622185.945679 1.096057 1.307413.47749.358118 1.056267.636654 1.736329.835608.680061.195337 1.443323.293006 2.289782.293006.850077 0 1.615406-.09767 2.295467-.293006.680062-.195336 1.256772-.473873 1.730644-.835608.473873-.361734.837675-.795817 1.09089-1.302246.256831-.510046.384989-1.079521.384989-1.708939 0-.618567-.128158-1.181324-.384989-1.687753-.253215-.510045-.617017-.944128-1.09089-1.302246-.473872-.361684-1.049032-.640221-1.725476-.83555799-.676444-.198954-1.436089-.298173-2.278931-.298173zm38.369235 0c-.853694 0-1.622641.09922-2.30632.298173-.680061.19533699-1.258838.47387399-1.736328.83560799-.477489.358118-.844393.79065-1.101224 1.297079-.253215.506428-.379822 1.070736-.379822 1.69292 0 .625801.126607 1.193726.379822 1.703772.256831.510046.622184.945679 1.096057 1.307413.477489.358118 1.056267.636654 1.736328.835608.680061.195337 1.443323.293006 2.289783.293006.850076 0 1.614889-.09767 2.29495-.293006s1.257288-.473873 1.73116-.835608c.473873-.361734.837159-.795817 1.090373-1.302246.256832-.510046.385506-1.079521.385506-1.708939 0-.618567-.128674-1.181324-.385506-1.687753-.253214-.510045-.6165-.944128-1.090373-1.302246-.473872-.361684-1.049032-.640221-1.725476-.83555799-.676444-.198954-1.436089-.298173-2.27893-.298173zm48.80012.80046799c.76105.02259 1.52443.331951 2.06551.873332.87273.8733 1.18618 2.287062.60978 3.427698-.5654 1.118974-1.53733 1.730127-2.83135 1.730127-.40175 0-.88663-.139494-1.16272-.279053-.68216-.34484-1.1034-.745236-1.45004-1.433504-.13504-.268111-.29714-.78304-.29714-1.170988 0-.533083.0624-.968237.28835-1.415418.34907-.690808.74227-1.088842 1.45883-1.451074.40603-.205277.86215-.294671 1.31878-.28112zm-14.57534.116272c.76104.02258 1.52444.332467 2.06551.873849.87278.873335 1.18619 2.287063.60978 3.427698-.56543 1.118974-1.53736 1.730126-2.83135 1.730126-.40174 0-.88615-.140046-1.1622-.279569-.68217-.344876-1.10392-.745236-1.45056-1.433504-.13501-.268076-.29714-.783039-.29714-1.170988 0-.533083.0624-.968272.28836-1.415418.34904-.690843.74278-1.08829 1.45934-1.450557.40603-.205264.86164-.295187 1.31826-.281637zm-48.097835 1.246436h1.790588c.361735 0 .68523.03617.971.10852.289388.07235.533818.180868.732772.325562.202571.141076.356051.320394.460954.537435.10852.217041.162781.471806.162781.764811 0 .30024-.05581.559139-.167949.77618-.112138.213423-.273368.388607-.483175.526066-.206188.137459-.459403.238745-.759643.303857-.30024.06511-.636654.09767-1.009241.09767h-1.698087zm-24.507032.170015c.343648 0 .660425.03979.949813.119373.289388.07958.538986.196887.748792.352433.213423.151929.377755.340031.49351.564307.119372.220658.179317.472323.179317.754476 0 .28577-.05994.540535-.179317.764811-.119373.220658-.283704.408761-.49351.564307-.209806.151928-.461471.269751-.754476.35295-.289388.07958-.604098.119372-.944129.119372-.343648 0-.661975-.03979-.95498-.119372-.293005-.07958-.54622-.195337-.759644-.347266-.209806-.155546-.374137-.343649-.49351-.564307-.119372-.224275-.179317-.481108-.179317-.770495 0-.282153.05994-.533818.179317-.754476.119373-.224276.283704-.412378.49351-.564307.213424-.151928.466639-.267684.759644-.347265.293005-.0832.611332-.124541.95498-.124541zm38.369235 0c.343648 0 .659908.03979.949296.119373.289387.07958.538985.196887.748791.352433.213424.151929.378272.340031.494027.564307.119372.220658.1788.472323.1788.754476 0 .28577-.05943.540535-.1788.764811-.119373.220658-.284221.408761-.494027.564307-.209806.151928-.460954.269751-.753959.35295-.289388.07958-.604098.119372-.944128.119372-.343648 0-.661976-.03979-.954981-.119372-.293005-.07958-.54622-.195337-.759643-.347266-.209807-.155546-.374655-.343649-.494027-.564307-.119373-.224275-.178801-.481108-.178801-.770495 0-.282153.05943-.533818.178801-.754476.119372-.224276.28422-.412378.494027-.564307.213423-.151928.466638-.267684.759643-.347265.293005-.0832.611333-.124541.954981-.124541z" fill="#fefefe"/></svg>