<?xml version="1.0" encoding="UTF-8" standalone="no"?>
<!-- Created with Inkscape (http://www.inkscape.org/) -->

<svg
   width="67.618538mm"
   height="67.618538mm"
   viewBox="0 0 67.618538 67.618538"
   version="1.1"
   id="svg1"
   inkscape:version="1.3 (0e150ed, 2023-07-21)"
   sodipodi:docname="brand-logo-rounded-black.svg"
   xmlns:inkscape="http://www.inkscape.org/namespaces/inkscape"
   xmlns:sodipodi="http://sodipodi.sourceforge.net/DTD/sodipodi-0.dtd"
   xmlns="http://www.w3.org/2000/svg"
   xmlns:svg="http://www.w3.org/2000/svg">
  <sodipodi:namedview
     id="namedview1"
     pagecolor="#ffffff"
     bordercolor="#000000"
     borderopacity="0.25"
     inkscape:showpageshadow="2"
     inkscape:pageopacity="0.0"
     inkscape:pagecheckerboard="0"
     inkscape:deskcolor="#d1d1d1"
     inkscape:document-units="mm"
     inkscape:zoom="2.9529574"
     inkscape:cx="80.597167"
     inkscape:cy="153.74418"
     inkscape:window-width="1728"
     inkscape:window-height="1023"
     inkscape:window-x="0"
     inkscape:window-y="38"
     inkscape:window-maximized="0"
     inkscape:current-layer="layer1"
     showgrid="false" />
  <defs
     id="defs1" />
  <g
     inkscape:label="Layer 1"
     inkscape:groupmode="layer"
     id="layer1"
     transform="translate(-114.66449,-80.79791)">
    <path
       d="M 148.47393,80.797911 A 33.809093,33.809093 0 0 1 182.28302,114.60704 33.809093,33.809093 0 1 1 148.47393,80.797911 Z"
       style="fill:#151516;fill-opacity:1;fill-rule:evenodd;stroke:#1b1918;stroke-width:0;stroke-linecap:butt;stroke-linejoin:miter;stroke-dasharray:none"
       id="path19" />
    <path
       d="m 139.84699,114.97774 c 0,-1.52545 0.17826,-2.7716 0.8249,-4.0512 0.99886,-1.97682 2.12507,-3.11457 4.17559,-4.1512 3.09834,-1.56637 7.20661,-0.78409 9.68392,1.69467 2.49746,2.49904 3.3938,6.5447 1.74435,9.8087 -1.61795,3.20203 -4.39914,4.95075 -8.10204,4.95075 -1.14959,0 -2.53626,-0.40019 -3.32623,-0.7995 -1.9521,-0.98683 -3.1586,-2.13191 -4.1505,-4.1014 -0.38636,-0.76722 -0.84999,-2.24067 -0.84999,-3.35082 z m -10.57733,-0.45011 c 0,0.81354 1.54083,3.10712 2.10061,3.90059 0.27341,0.38742 0.58734,0.75505 0.8902,1.13535 1.64808,2.06925 4.30128,4.1239 6.63625,5.29127 0.47575,0.23785 0.83954,0.41512 1.32323,0.62724 1.68684,0.7396 2.75216,0.98281 4.63458,1.36666 3.6478,0.74387 8.40945,0.1831 11.77054,-1.31931 0.51428,-0.22987 0.90787,-0.41558 1.37583,-0.64957 1.46403,-0.73202 3.57625,-2.10259 4.7074,-3.24436 1.14981,-1.1605 1.68335,-1.59187 2.80599,-3.12028 0.64072,-0.87242 2.1637,-3.1889 2.1637,-3.98759 0,-0.59369 -1.62977,-3.08324 -2.10062,-3.75059 -0.2734,-0.38742 -0.58734,-0.75505 -0.8902,-1.13535 -0.32935,-0.41349 -0.55577,-0.64625 -0.92982,-1.02055 l -1.01162,-1.01388 c -1.50019,-1.51007 -4.06005,-3.02553 -6.01804,-3.88409 -0.47551,-0.20845 -0.93616,-0.36367 -1.45909,-0.56631 -2.77378,-1.07506 -7.31153,-1.43722 -10.35173,-0.81312 -2.79707,0.57418 -4.79802,1.20206 -7.23124,2.67095 -0.6659,0.40203 -1.78989,1.12099 -2.35648,1.61932 -0.38707,0.34047 -0.72496,0.56734 -1.08981,0.93564 -1.35664,1.36934 -2.57361,2.55711 -3.62373,4.32809 -0.23516,0.39663 -1.34595,2.1934 -1.34595,2.62989 z"
       style="fill:#fefefe;fill-opacity:1;fill-rule:evenodd;stroke-width:0;stroke-dasharray:none"
       id="path20" />
  </g>
</svg>
