<?xml version="1.0" encoding="UTF-8" standalone="no"?>
<!-- Created with Inkscape (http://www.inkscape.org/) -->

<svg
   width="21mm"
   height="16mm"
   viewBox="0 0 21.000001 16"
   version="1.1"
   id="svg1"
   sodipodi:docname="brand-logo-white.svg"
   inkscape:version="1.3 (0e150ed, 2023-07-21)"
   xmlns:inkscape="http://www.inkscape.org/namespaces/inkscape"
   xmlns:sodipodi="http://sodipodi.sourceforge.net/DTD/sodipodi-0.dtd"
   xmlns="http://www.w3.org/2000/svg"
   xmlns:svg="http://www.w3.org/2000/svg">
  <sodipodi:namedview
     id="namedview1"
     pagecolor="#ffffff"
     bordercolor="#000000"
     borderopacity="0.25"
     inkscape:showpageshadow="2"
     inkscape:pageopacity="0.0"
     inkscape:pagecheckerboard="0"
     inkscape:deskcolor="#d1d1d1"
     inkscape:document-units="mm"
     inkscape:zoom="5.3769784"
     inkscape:cx="68.718892"
     inkscape:cy="52.817768"
     inkscape:window-width="1728"
     inkscape:window-height="1023"
     inkscape:window-x="0"
     inkscape:window-y="38"
     inkscape:window-maximized="0"
     inkscape:current-layer="layer1" />
  <defs
     id="defs1" />
  <g
     inkscape:label="Layer 1"
     inkscape:groupmode="layer"
     id="layer1"
     transform="translate(-115.06241,-84.51353)">
    <path
       d="m 121.249,92.698889 c 0,-0.76272 0.0891,-1.3858 0.41245,-2.0256 0.49942,-0.98841 1.06253,-1.55728 2.08779,-2.0756 1.54917,-0.78318 3.60331,-0.39204 4.84196,0.84734 1.24873,1.24952 1.6969,3.27235 0.87218,4.90435 -0.80898,1.601011 -2.19957,2.475371 -4.05102,2.475371 -0.57481,0 -1.26814,-0.20009 -1.66312,-0.39975 -0.97605,-0.49341 -1.5793,-1.06595 -2.07525,-2.050701 -0.19318,-0.38361 -0.42499,-1.12033 -0.42499,-1.67541 z m -5.28867,-0.22505 c 0,0.40677 0.77042,1.55356 1.05031,1.95029 0.1367,0.19371 0.29367,0.377531 0.4451,0.567681 0.82404,1.03462 2.15064,2.06195 3.31811,2.64563 0.23788,0.11893 0.41977,0.20756 0.66162,0.31362 0.84342,0.3698 1.37608,0.49141 2.31729,0.68333 1.8239,0.37194 4.20472,0.0915 5.88527,-0.65965 0.25714,-0.11494 0.45393,-0.20779 0.68791,-0.32479 0.73202,-0.36601 1.78813,-1.05129 2.3537,-1.62218 0.57491,-0.58025 0.84168,-0.79593 1.403,-1.560141 0.32036,-0.43621 1.08185,-1.59445 1.08185,-1.99379 0,-0.29685 -0.81489,-1.54162 -1.05031,-1.8753 -0.1367,-0.19371 -0.29367,-0.37752 -0.4451,-0.56767 -0.16468,-0.20675 -0.27789,-0.32313 -0.46491,-0.51028 l -0.50581,-0.50694 c -0.7501,-0.75503 -2.03003,-1.51276 -3.00902,-1.94204 -0.23776,-0.10423 -0.46808,-0.18184 -0.72955,-0.28316 -1.38689,-0.53753 -3.65576,-0.71861 -5.17586,-0.40656 -1.39854,0.28709 -2.39901,0.60103 -3.61562,1.33548 -0.33295,0.20101 -0.89495,0.56049 -1.17824,0.80966 -0.19354,0.17023 -0.36248,0.28367 -0.5449,0.46782 -0.67833,0.68467 -1.2868,1.27855 -1.81186,2.16404 -0.11758,0.19832 -0.67298,1.0967 -0.67298,1.31495 z"
       style="fill:#fefefe;fill-opacity:1;fill-rule:evenodd;stroke-width:0;stroke-dasharray:none"
       id="path20" />
  </g>
</svg>
