<svg height="16mm" viewBox="0 0 21.000001 16" width="21mm" xmlns="http://www.w3.org/2000/svg"><path d="m6.18659 8.1853588c0-.76272.0891-1.3858.41245-2.0256.49942-.98841 1.06253-1.55728 2.08779-2.0756 1.54917-.78318 3.60331-.39204 4.84196.84734 1.24873 1.24952 1.6969 3.27235.87218 4.90435-.80898 1.6010112-2.19957 2.4753712-4.05102 2.4753712-.57481 0-1.26814-.20009-1.66312-.39975-.97605-.49341-1.5793-1.06595-2.07525-2.0507012-.19318-.38361-.42499-1.12033-.42499-1.67541zm-5.28867-.22505c0 .40677.77042 1.55356 1.05031 1.95029.1367.1937102.29367.3775312.4451.5676812.82404 1.03462 2.15064 2.06195 3.31811 2.64563.23788.11893.41977.20756.66162.31362.84342.3698 1.37608.49141 2.31729.68333 1.8239.37194 4.20472.0915 5.88527-.65965.25714-.11494.45393-.20779.68791-.32479.73202-.36601 1.78813-1.05129 2.3537-1.62218.57491-.58025.84168-.79593 1.403-1.5601412.32036-.43621 1.08185-1.59445 1.08185-1.99379 0-.29685-.81489-1.54162-1.05031-1.8753-.1367-.19371-.29367-.37752-.4451-.56767-.16468-.20675-.27789-.32313-.46491-.51028l-.50581-.50694c-.7501-.75503-2.03003-1.51276-3.00902-1.94204-.23776-.10423-.46808-.18184-.72955-.28316-1.38689-.53753-3.65576-.71861-5.17586-.40656-1.39854.28709-2.39901.60103-3.61562 1.33548-.33295.20101-.89495.56049-1.17824.80966-.19354.17023-.36248.28367-.5449.46782-.67833.68467-1.2868 1.27855-1.81186 2.16404-.11758.19832-.67298 1.0967-.67298 1.31495z" fill="#fefefe" fill-rule="evenodd"/></svg>