<svg height="67.618187mm" viewBox="0 0 67.618187 67.618187" width="67.618187mm" xmlns="http://www.w3.org/2000/svg"><path d="m33.808876.00000048a33.809093 33.809093 0 1 0 33.80931 33.80878452 33.809093 33.809093 0 0 0 -33.80931-33.80878452zm.32298 21.24521452c2.31544.04822 4.73835.441719 6.47196 1.113627.52292.202635.98332.357918 1.45882.566374 1.95799.858554 4.51805 2.373937 6.01824 3.884001l1.01183 1.013891c.37405.374298.6003.607119.92966 1.02061.30286.380294.61697.74791.89038 1.135331.47085.667349 2.10065 3.156986 2.10065 3.750676 0 .79869-1.52298 3.11493-2.16369 3.98735-1.12264 1.52841-1.65624 1.95973-2.80604 3.12023-1.13114 1.14176-3.24369 2.51274-4.70772 3.24476-.46796.23399-.86135.4197-1.37562.64957-3.36109 1.50241-8.12308 2.06317-11.77086 1.3193-1.88242-.38385-2.94751-.62724-4.63434-1.36684-.4837-.21212-.84768-.3895-1.32344-.62735-2.33496-1.16737-4.98822-3.2219-6.63629-5.29115-.30286-.3803-.61646-.74791-.88986-1.13533-.55979-.79347-2.10065-3.08699-2.10065-3.90054 0-.43649 1.11049-2.233187 1.34565-2.629814 1.05011-1.770977 2.26743-2.959077 3.62407-4.328418.36484-.3683.7028-.594878 1.08986-.935344.5666-.498333 1.69053-1.217513 2.35644-1.619539 2.43321-1.468894 4.43402-2.096458 7.23109-2.670638 1.14007-.234037 2.4906-.32969 3.87986-.300757zm-.17673 3.926376c-1.30665-.03878-2.6105.218247-3.77238.805635-2.05053 1.036636-3.1766 2.174345-4.17546 4.151168-.64664 1.279595-.82527 2.525992-.82527 4.051431 0 1.11016.46372 2.58348.85008 3.3507.99191 1.96949 2.19855 3.11473 4.15065 4.10156.78997.39931 2.1763.79943 3.32589.79943 3.7029 0 6.4844-1.74857 8.10235-4.9506 1.64944-3.26401.75286-7.309661-1.74459-9.808702-1.54832-1.549221-3.73352-2.435992-5.91127-2.500622z" fill="#151516" fill-rule="evenodd"/></svg>